<svg width="587" height="98" viewBox="0 0 587 98" fill="none" xmlns="http://www.w3.org/2000/svg">
<path d="M6.1798 49.928V46.76C8.0998 46.696 9.6678 45.896 10.8838 44.36C12.0998 42.824 12.8678 41.192 13.1878 39.464C13.5718 37.736 13.7638 35.848 13.7638 33.8V16.712C13.7638 12.232 14.4678 9.224 15.8758 7.68799C17.2838 6.15199 19.3318 5.384 22.0198 5.384H26.5318V8.55199H22.3078C20.3238 8.55199 18.9798 9.192 18.2758 10.472C17.6358 11.688 17.3158 14.344 17.3158 18.44V35.432C17.3158 41.384 15.2358 45.704 11.0758 48.392C15.2358 51.08 17.3158 55.368 17.3158 61.256V78.248C17.3158 82.344 17.6358 85 18.2758 86.216C18.9798 87.496 20.3238 88.136 22.3078 88.136H26.5318V91.304H22.0198C19.3318 91.304 17.2838 90.536 15.8758 89C14.4678 87.464 13.7638 84.456 13.7638 79.976V62.888C13.7638 60.84 13.5718 58.952 13.1878 57.224C12.8678 55.496 12.0998 53.864 10.8838 52.328C9.6678 50.792 8.0998 49.992 6.1798 49.928ZM112.535 77H109.464V45.875H112.535V77ZM113.946 33.84C113.946 34.5593 113.67 35.168 113.116 35.666C112.618 36.164 112.01 36.413 111.29 36.413C110.626 36.413 110.018 36.164 109.464 35.666C108.966 35.168 108.717 34.5593 108.717 33.84C108.717 33.0653 108.994 32.429 109.547 31.931C110.101 31.3777 110.709 31.101 111.373 31.101C112.037 31.101 112.618 31.3777 113.116 31.931C113.67 32.429 113.946 33.0653 113.946 33.84ZM128.164 77H125.093V48.614H119.698V45.875H125.093V25.623H128.164V45.875H137.709V48.614H128.164V77ZM143.45 72.933C140.296 69.7237 138.719 65.9057 138.719 61.479C138.719 57.0523 140.296 53.262 143.45 50.108C146.604 46.8987 150.339 45.294 154.655 45.294C158.971 45.294 162.65 46.6773 165.694 49.444L164.034 51.519C161.544 49.195 158.445 48.033 154.738 48.033C151.03 48.033 147.932 49.3057 145.442 51.851C143.007 54.3963 141.79 57.6057 141.79 61.479C141.79 65.3523 143.007 68.5617 145.442 71.107C147.932 73.6523 151.03 74.925 154.738 74.925C158.445 74.925 161.544 73.763 164.034 71.439L165.694 73.514C162.65 76.2807 158.971 77.664 154.655 77.664C150.339 77.664 146.604 76.087 143.45 72.933ZM203.447 61.479C203.447 65.961 201.87 69.8067 198.716 73.016C195.562 76.17 191.716 77.747 187.179 77.747C182.697 77.747 178.879 76.17 175.725 73.016C172.571 69.8067 170.994 65.9887 170.994 61.562C170.994 57.08 172.571 53.262 175.725 50.108C178.879 46.8987 182.697 45.294 187.179 45.294C191.716 45.294 195.562 46.871 198.716 50.025C201.87 53.179 203.447 56.997 203.447 61.479ZM174.065 61.479C174.065 65.297 175.282 68.5063 177.717 71.107C180.207 73.7077 183.361 75.008 187.179 75.008C191.052 75.008 194.206 73.7077 196.641 71.107C199.131 68.5063 200.376 65.297 200.376 61.479C200.376 57.6057 199.131 54.3963 196.641 51.851C194.206 49.3057 191.052 48.033 187.179 48.033C183.361 48.033 180.207 49.3057 177.717 51.851C175.282 54.3963 174.065 57.6057 174.065 61.479ZM213.043 77H209.972V45.875H213.043V77ZM214.454 33.84C214.454 34.5593 214.177 35.168 213.624 35.666C213.126 36.164 212.517 36.413 211.798 36.413C211.134 36.413 210.525 36.164 209.972 35.666C209.474 35.168 209.225 34.5593 209.225 33.84C209.225 33.0653 209.502 32.429 210.055 31.931C210.608 31.3777 211.217 31.101 211.881 31.101C212.545 31.101 213.126 31.3777 213.624 31.931C214.177 32.429 214.454 33.0653 214.454 33.84ZM251.271 77H248.2V54.59C248.089 52.764 247.398 51.2423 246.125 50.025C244.852 48.8077 242.999 48.1437 240.564 48.033C236.912 48.033 233.758 49.1397 231.102 51.353C228.446 53.5663 227.118 56.333 227.118 59.653V77H224.047V45.958H226.786L227.118 54.258C228.28 51.5467 230.023 49.3887 232.347 47.784C234.726 46.1793 237.465 45.377 240.564 45.377C243.718 45.3217 246.263 46.1517 248.2 47.867C250.137 49.5823 251.16 51.8233 251.271 54.59V77ZM316.503 77.664C308.313 77.664 301.314 74.7867 295.504 69.032C289.749 63.222 286.872 56.2223 286.872 48.033C286.872 39.7883 289.749 32.761 295.504 26.951C301.314 21.141 308.313 18.236 316.503 18.236C324.747 18.236 331.775 21.141 337.585 26.951C343.395 32.761 346.3 39.7883 346.3 48.033C346.3 56.2223 343.395 63.222 337.585 69.032C331.775 74.7867 324.747 77.664 316.503 77.664ZM297.745 29.192C292.543 34.4487 289.943 40.729 289.943 48.033C289.943 55.337 292.543 61.5897 297.745 66.791C302.946 71.9923 309.199 74.593 316.503 74.593C323.807 74.593 330.087 71.9923 335.344 66.791C340.6 61.5897 343.229 55.337 343.229 48.033C343.229 40.729 340.6 34.4487 335.344 29.192C330.087 23.9353 323.807 21.307 316.503 21.307C309.199 21.307 302.946 23.9353 297.745 29.192ZM355.842 77V14.75H358.913V54.424C360.075 51.6573 361.818 49.444 364.142 47.784C366.466 46.124 369.233 45.294 372.442 45.294C376.924 45.294 380.742 46.8987 383.896 50.108C387.05 53.262 388.627 57.08 388.627 61.562C388.627 65.9887 387.05 69.8067 383.896 73.016C380.742 76.17 376.924 77.747 372.442 77.747C369.288 77.747 366.494 76.8893 364.059 75.174C361.624 73.4033 359.826 71.107 358.664 68.285L358.913 72.02V77H355.842ZM359.245 61.479C359.245 65.297 360.462 68.5063 362.897 71.107C365.387 73.7077 368.541 75.008 372.359 75.008C376.232 75.008 379.386 73.7077 381.821 71.107C384.311 68.5063 385.556 65.297 385.556 61.479C385.556 57.6057 384.311 54.3963 381.821 51.851C379.386 49.3057 376.232 48.033 372.359 48.033C368.541 48.033 365.387 49.3057 362.897 51.851C360.462 54.3963 359.245 57.6057 359.245 61.479ZM397.042 97.75L394.967 95.841C397.845 93.2403 399.311 89.9203 399.366 85.881V45.875H402.437V85.881C402.327 90.695 400.528 94.6513 397.042 97.75ZM403.682 33.84C403.682 34.5593 403.406 35.168 402.852 35.666C402.354 36.164 401.746 36.413 401.026 36.413C400.362 36.413 399.754 36.164 399.2 35.666C398.702 35.168 398.453 34.5593 398.453 33.84C398.453 33.0653 398.73 32.429 399.283 31.931C399.837 31.3777 400.445 31.101 401.109 31.101C401.773 31.101 402.354 31.3777 402.852 31.931C403.406 32.429 403.682 33.0653 403.682 33.84ZM441.466 56.582L414.906 66.874C415.902 69.364 417.451 71.356 419.554 72.85C421.712 74.344 424.395 75.091 427.605 75.091C430.814 75.091 433.636 73.9567 436.071 71.688L438.146 73.348C435.047 76.336 431.312 77.83 426.941 77.83C422.569 77.83 418.807 76.253 415.653 73.099C412.499 69.8897 410.922 66.0717 410.922 61.645C410.922 57.163 412.499 53.345 415.653 50.191C418.807 46.9817 422.625 45.377 427.107 45.377C430.648 45.377 433.636 46.4007 436.071 48.448C438.561 50.4953 440.359 53.2067 441.466 56.582ZM413.993 61.562C413.993 62.1707 414.048 63.0283 414.159 64.135L437.897 54.922C435.628 50.3847 432.031 48.116 427.107 48.116C423.289 48.116 420.135 49.3887 417.645 51.934C415.21 54.4793 413.993 57.6887 413.993 61.562ZM450.079 72.933C446.925 69.7237 445.348 65.9057 445.348 61.479C445.348 57.0523 446.925 53.262 450.079 50.108C453.233 46.8987 456.968 45.294 461.284 45.294C465.6 45.294 469.28 46.6773 472.323 49.444L470.663 51.519C468.173 49.195 465.075 48.033 461.367 48.033C457.66 48.033 454.561 49.3057 452.071 51.851C449.637 54.3963 448.419 57.6057 448.419 61.479C448.419 65.3523 449.637 68.5617 452.071 71.107C454.561 73.6523 457.66 74.925 461.367 74.925C465.075 74.925 468.173 73.763 470.663 71.439L472.323 73.514C469.28 76.2807 465.6 77.664 461.284 77.664C456.968 77.664 453.233 76.087 450.079 72.933ZM486.912 77H483.841V48.614H478.446V45.875H483.841V25.623H486.912V45.875H496.457V48.614H486.912V77ZM520.126 49.029L518.549 51.187C517.995 50.523 517.027 49.859 515.644 49.195C514.316 48.531 512.96 48.199 511.577 48.199C510.193 48.199 508.921 48.6417 507.759 49.527C506.652 50.4123 506.099 51.685 506.099 53.345C506.099 55.005 506.486 56.2223 507.261 56.997C508.091 57.7163 509.28 58.3527 510.83 58.906C512.379 59.404 513.624 59.8743 514.565 60.317C515.505 60.7043 516.557 61.2853 517.719 62.06C520.153 63.554 521.371 65.5737 521.371 68.119C521.371 70.6643 520.513 72.9053 518.798 74.842C517.138 76.7233 514.731 77.664 511.577 77.664C507.261 77.664 504.079 76.3637 502.032 73.763L503.858 71.522C504.632 72.5733 505.822 73.431 507.427 74.095C509.087 74.759 510.608 75.0357 511.992 74.925C513.43 74.8143 514.841 74.2333 516.225 73.182C517.608 72.1307 518.3 70.609 518.3 68.617C518.3 65.961 516.778 64.052 513.735 62.89C513.071 62.6133 512.434 62.392 511.826 62.226L509.834 61.562C509.114 61.2853 508.644 61.1193 508.423 61.064C508.257 61.0087 507.842 60.8427 507.178 60.566C506.569 60.234 506.126 59.985 505.85 59.819C505.628 59.5977 505.296 59.2933 504.854 58.906C504.411 58.4633 504.107 58.0207 503.941 57.578C503.387 56.3607 503.111 55.171 503.111 54.009C503.111 51.353 503.968 49.278 505.684 47.784C507.454 46.2347 509.474 45.46 511.743 45.46C515.229 45.46 518.023 46.6497 520.126 49.029ZM580.307 46.76V49.928C578.387 49.992 576.819 50.792 575.603 52.328C574.387 53.864 573.587 55.496 573.203 57.224C572.883 58.952 572.723 60.84 572.723 62.888V79.976C572.723 84.456 572.019 87.464 570.611 89C569.203 90.536 567.155 91.304 564.467 91.304H559.955V88.136H564.179C566.163 88.136 567.475 87.496 568.115 86.216C568.819 85 569.171 82.344 569.171 78.248V61.256C569.171 55.368 571.251 51.08 575.411 48.392C571.251 45.704 569.171 41.384 569.171 35.432V18.44C569.171 14.344 568.819 11.688 568.115 10.472C567.475 9.192 566.163 8.55199 564.179 8.55199H559.955V5.384H564.467C567.155 5.384 569.203 6.15199 570.611 7.68799C572.019 9.224 572.723 12.232 572.723 16.712V33.8C572.723 35.848 572.883 37.736 573.203 39.464C573.587 41.192 574.387 42.824 575.603 44.36C576.819 45.896 578.387 46.696 580.307 46.76Z" fill="black"/>
<path d="M76.4292 77H63.1492V18.9H73.2752C80.5792 18.9 86.0849 20.2557 89.7922 22.967C93.4995 25.623 95.3532 29.3857 95.3532 34.255C95.3532 39.7883 93.0292 43.8553 88.3812 46.456C95.1319 49.0013 98.5072 53.7877 98.5072 60.815C98.5072 65.795 96.6812 69.7513 93.0292 72.684C89.3772 75.5613 83.8439 77 76.4292 77ZM76.4292 74.51C79.0299 74.51 81.4092 74.3163 83.5672 73.929C85.7252 73.4863 87.7725 72.7947 89.7092 71.854C91.7012 70.858 93.2505 69.4193 94.3572 67.538C95.4639 65.6567 96.0172 63.4157 96.0172 60.815C96.0172 54.8943 93.1675 50.8827 87.4682 48.78L82.4882 46.954L87.1362 44.298C90.9542 42.1953 92.8632 38.8477 92.8632 34.255C92.8632 25.6783 86.3339 21.39 73.2752 21.39H65.6392V74.51H76.4292Z" fill="black"/>
<path d="M63.1492 77H62.9492V77.2H63.1492V77ZM63.1492 18.9V18.7H62.9492V18.9H63.1492ZM89.7922 22.967L89.6741 23.1284L89.6757 23.1296L89.7922 22.967ZM88.3812 46.456L88.2836 46.2815L87.9083 46.4914L88.3107 46.6431L88.3812 46.456ZM93.0292 72.684L93.153 72.8411L93.1544 72.8399L93.0292 72.684ZM83.5672 73.929L83.6026 74.1259L83.6074 74.1249L83.5672 73.929ZM89.7092 71.854L89.7966 72.0339L89.7987 72.0329L89.7092 71.854ZM94.3572 67.538L94.1848 67.4366L94.1848 67.4366L94.3572 67.538ZM87.4682 48.78L87.5374 48.5924L87.5371 48.5922L87.4682 48.78ZM82.4882 46.954L82.389 46.7803L82.0156 46.9937L82.4194 47.1418L82.4882 46.954ZM87.1362 44.298L87.0397 44.1228L87.037 44.1243L87.1362 44.298ZM65.6392 21.39V21.19H65.4392V21.39H65.6392ZM65.6392 74.51H65.4392V74.71H65.6392V74.51ZM76.4292 76.8H63.1492V77.2H76.4292V76.8ZM63.3492 77V18.9H62.9492V77H63.3492ZM63.1492 19.1H73.2752V18.7H63.1492V19.1ZM73.2752 19.1C80.56 19.1 86.016 20.4531 89.6741 23.1284L89.9103 22.8056C86.1538 20.0583 80.5985 18.7 73.2752 18.7V19.1ZM89.6757 23.1296C93.3266 25.7451 95.1532 29.445 95.1532 34.255H95.5532C95.5532 29.3263 93.6725 25.5009 89.9087 22.8044L89.6757 23.1296ZM95.1532 34.255C95.1532 36.9932 94.5784 39.3578 93.4366 41.356C92.2949 43.3538 90.5803 44.9964 88.2836 46.2815L88.4789 46.6305C90.8301 45.3149 92.6015 43.6237 93.7839 41.5545C94.966 39.4857 95.5532 37.0501 95.5532 34.255H95.1532ZM88.3107 46.6431C91.6573 47.905 94.1525 49.7165 95.8123 52.07C97.4717 54.4232 98.3072 57.3342 98.3072 60.815H98.7072C98.7072 57.2685 97.855 54.2727 96.1392 51.8395C94.4236 49.4067 91.8558 47.5523 88.4518 46.2689L88.3107 46.6431ZM98.3072 60.815C98.3072 65.7388 96.5054 69.636 92.904 72.5281L93.1544 72.8399C96.857 69.8666 98.7072 65.8512 98.7072 60.815H98.3072ZM92.9054 72.5269C89.3043 75.3642 83.8239 76.8 76.4292 76.8V77.2C83.8639 77.2 89.4502 75.7585 93.153 72.8411L92.9054 72.5269ZM76.4292 74.71C79.0396 74.71 81.431 74.5156 83.6025 74.1259L83.5319 73.7321C81.3875 74.117 79.0201 74.31 76.4292 74.31V74.71ZM83.6074 74.1249C85.7814 73.679 87.8446 72.982 89.7966 72.0339L89.6218 71.6741C87.7005 72.6073 85.6691 73.2937 83.527 73.7331L83.6074 74.1249ZM89.7987 72.0329C91.8245 71.02 93.4029 69.5547 94.5296 67.6394L94.1848 67.4366C93.0982 69.2839 91.578 70.696 89.6198 71.6751L89.7987 72.0329ZM94.5296 67.6394C95.6575 65.7219 96.2172 63.4445 96.2172 60.815H95.8172C95.8172 63.3869 95.2702 65.5914 94.1848 67.4366L94.5296 67.6394ZM96.2172 60.815C96.2172 57.8218 95.4964 55.296 94.043 53.2499C92.5899 51.2043 90.416 49.6543 87.5374 48.5924L87.399 48.9676C90.2198 50.0083 92.3204 51.5156 93.7169 53.4816C95.1132 55.4472 95.8172 57.8876 95.8172 60.815H96.2172ZM87.5371 48.5922L82.5571 46.7662L82.4194 47.1418L87.3994 48.9678L87.5371 48.5922ZM82.5874 47.1276L87.2354 44.4716L87.037 44.1243L82.389 46.7803L82.5874 47.1276ZM87.2327 44.4732C89.1696 43.4065 90.6301 42.0192 91.6052 40.3093C92.5799 38.6 93.0632 36.5794 93.0632 34.255H92.6632C92.6632 36.5233 92.192 38.4728 91.2577 40.1112C90.3238 41.749 88.9208 43.0869 87.0397 44.1228L87.2327 44.4732ZM93.0632 34.255C93.0632 29.9071 91.4032 26.6243 88.076 24.4391C84.7635 22.2635 79.8201 21.19 73.2752 21.19V21.59C79.789 21.59 84.6396 22.6607 87.8564 24.7734C91.0586 26.8765 92.6632 30.0262 92.6632 34.255H93.0632ZM73.2752 21.19H65.6392V21.59H73.2752V21.19ZM65.4392 21.39V74.51H65.8392V21.39H65.4392ZM65.6392 74.71H76.4292V74.31H65.6392V74.71Z" fill="black"/>
</svg>
