<svg width="145" height="107" viewBox="0 0 145 107" fill="none" xmlns="http://www.w3.org/2000/svg">
<path d="M7.21502 55.442V51.515C9.59502 51.4357 11.5387 50.444 13.046 48.54C14.5534 46.636 15.5054 44.613 15.902 42.471C16.378 40.329 16.616 37.9887 16.616 35.45V14.268C16.616 8.71466 17.4887 4.986 19.234 3.08199C20.9794 1.17799 23.518 0.225994 26.85 0.225994H32.443V4.15299H27.207C24.7477 4.15299 23.0817 4.94633 22.209 6.533C21.4157 8.04033 21.019 11.3327 21.019 16.41V37.473C21.019 44.851 18.4407 50.206 13.284 53.538C18.4407 56.87 21.019 62.1853 21.019 69.484V90.547C21.019 95.6243 21.4157 98.9167 22.209 100.424C23.0817 102.011 24.7477 102.804 27.207 102.804H32.443V106.731H26.85C23.518 106.731 20.9794 105.779 19.234 103.875C17.4887 101.971 16.616 98.2423 16.616 92.689V71.507C16.616 68.9683 16.378 66.628 15.902 64.486C15.5054 62.344 14.5534 60.321 13.046 58.417C11.5387 56.513 9.59502 55.5213 7.21502 55.442ZM137.149 51.515V55.442C134.769 55.5213 132.825 56.513 131.318 58.417C129.811 60.321 128.819 62.344 128.343 64.486C127.946 66.628 127.748 68.9683 127.748 71.507V92.689C127.748 98.2423 126.875 101.971 125.13 103.875C123.385 105.779 120.846 106.731 117.514 106.731H111.921V102.804H117.157C119.616 102.804 121.243 102.011 122.036 100.424C122.909 98.9167 123.345 95.6243 123.345 90.547V69.484C123.345 62.1853 125.923 56.87 131.08 53.538C125.923 50.206 123.345 44.851 123.345 37.473V16.41C123.345 11.3327 122.909 8.04033 122.036 6.533C121.243 4.94633 119.616 4.15299 117.157 4.15299H111.921V0.225994H117.514C120.846 0.225994 123.385 1.17799 125.13 3.08199C126.875 4.986 127.748 8.71466 127.748 14.268V35.45C127.748 37.9887 127.946 40.329 128.343 42.471C128.819 44.613 129.811 46.636 131.318 48.54C132.825 50.444 134.769 51.4357 137.149 51.515Z" fill="black"/>
<path d="M69.7005 91H52.4205V15.4H65.5965C75.1005 15.4 82.2645 17.164 87.0885 20.692C91.9125 24.148 94.3245 29.044 94.3245 35.38C94.3245 42.58 91.3005 47.872 85.2525 51.256C94.0365 54.568 98.4285 60.796 98.4285 69.94C98.4285 76.42 96.0525 81.568 91.3005 85.384C86.5485 89.128 79.3485 91 69.7005 91ZM69.7005 87.76C73.0845 87.76 76.1805 87.508 78.9885 87.004C81.7965 86.428 84.4605 85.528 86.9805 84.304C89.5725 83.008 91.5885 81.136 93.0285 78.688C94.4685 76.24 95.1885 73.324 95.1885 69.94C95.1885 62.236 91.4805 57.016 84.0645 54.28L77.5845 51.904L83.6325 48.448C88.6005 45.712 91.0845 41.356 91.0845 35.38C91.0845 24.22 82.5885 18.64 65.5965 18.64H55.6605V87.76H69.7005Z" fill="black"/>
<path d="M52.4205 91H51.9205V91.5H52.4205V91ZM52.4205 15.4V14.9H51.9205V15.4H52.4205ZM87.0885 20.692L86.7933 21.0956L86.7973 21.0985L87.0885 20.692ZM85.2525 51.256L85.0084 50.8197L84.0702 51.3446L85.0761 51.7238L85.2525 51.256ZM91.3005 85.384L91.61 85.7768L91.6136 85.7739L91.3005 85.384ZM78.9885 87.004L79.0769 87.4963L79.089 87.4938L78.9885 87.004ZM86.9805 84.304L87.199 84.7538L87.2041 84.7512L86.9805 84.304ZM93.0285 78.688L92.5976 78.4345L92.5976 78.4345L93.0285 78.688ZM84.0645 54.28L84.2376 53.8109L84.2366 53.8106L84.0645 54.28ZM77.5845 51.904L77.3364 51.4699L76.4029 52.0033L77.4124 52.3734L77.5845 51.904ZM83.6325 48.448L83.3913 48.01L83.3844 48.0139L83.6325 48.448ZM55.6605 18.64V18.14H55.1605V18.64H55.6605ZM55.6605 87.76H55.1605V88.26H55.6605V87.76ZM69.7005 90.5H52.4205V91.5H69.7005V90.5ZM52.9205 91V15.4H51.9205V91H52.9205ZM52.4205 15.9H65.5965V14.9H52.4205V15.9ZM65.5965 15.9C75.0524 15.9 82.0923 17.6575 86.7934 21.0956L87.3837 20.2884C82.4368 16.6705 75.1487 14.9 65.5965 14.9V15.9ZM86.7973 21.0985C91.4802 24.4533 93.8245 29.1924 93.8245 35.38H94.8245C94.8245 28.8956 92.3449 23.8427 87.3797 20.2855L86.7973 21.0985ZM93.8245 35.38C93.8245 38.9088 93.084 41.9431 91.6224 44.5009C90.1614 47.0577 87.9642 49.1658 85.0084 50.8197L85.4967 51.6923C88.5888 49.9622 90.9277 47.7323 92.4906 44.9971C94.053 42.2629 94.8245 39.0512 94.8245 35.38H93.8245ZM85.0761 51.7238C89.3964 53.3528 92.5997 55.6842 94.7259 58.6992C96.8514 61.7131 97.9285 65.4501 97.9285 69.94H98.9285C98.9285 65.2859 97.8097 61.3369 95.5431 58.1228C93.2773 54.9098 89.8927 52.4712 85.4289 50.7881L85.0761 51.7238ZM97.9285 69.94C97.9285 76.2795 95.6129 81.2797 90.9875 84.9941L91.6136 85.7739C96.4921 81.8563 98.9285 76.5605 98.9285 69.94H97.9285ZM90.9911 84.9913C86.3661 88.6352 79.2985 90.5 69.7005 90.5V91.5C79.3985 91.5 86.7309 89.6208 91.61 85.7767L90.9911 84.9913ZM69.7005 88.26C73.1088 88.26 76.2349 88.0062 79.0769 87.4961L78.9002 86.5119C76.1261 87.0098 73.0602 87.26 69.7005 87.26V88.26ZM79.089 87.4938C81.9369 86.9096 84.6406 85.9964 87.199 84.7538L86.7621 83.8542C84.2804 85.0596 81.6562 85.9464 78.888 86.5142L79.089 87.4938ZM87.2041 84.7512C89.8806 83.413 91.9695 81.4745 93.4595 78.9415L92.5976 78.4345C91.2076 80.7975 89.2644 82.603 86.7569 83.8568L87.2041 84.7512ZM93.4595 78.9415C94.9527 76.4031 95.6885 73.396 95.6885 69.94H94.6885C94.6885 73.252 93.9844 76.0769 92.5976 78.4345L93.4595 78.9415ZM95.6885 69.94C95.6885 66.0058 94.7406 62.668 92.8151 59.9574C90.8904 57.2479 88.0177 55.2055 84.2376 53.8109L83.8915 54.7491C87.5273 56.0905 90.2166 58.0261 91.9999 60.5366C93.7824 63.046 94.6885 66.1702 94.6885 69.94H95.6885ZM84.2366 53.8106L77.7566 51.4346L77.4124 52.3734L83.8924 54.7494L84.2366 53.8106ZM77.8326 52.3381L83.8806 48.8821L83.3844 48.0139L77.3364 51.4699L77.8326 52.3381ZM83.8737 48.886C86.4276 47.4795 88.3625 45.6448 89.6559 43.3767C90.9485 41.1099 91.5845 38.4382 91.5845 35.38H90.5845C90.5845 38.2978 89.9786 40.7921 88.7872 42.8813C87.5966 44.9692 85.8055 46.6805 83.3913 48.01L83.8737 48.886ZM91.5845 35.38C91.5845 29.6511 89.3913 25.2997 84.987 22.4071C80.6193 19.5385 74.1313 18.14 65.5965 18.14V19.14C74.0537 19.14 80.3097 20.5315 84.438 23.2429C88.5297 25.9302 90.5845 29.9489 90.5845 35.38H91.5845ZM65.5965 18.14H55.6605V19.14H65.5965V18.14ZM55.1605 18.64V87.76H56.1605V18.64H55.1605ZM55.6605 88.26H69.7005V87.26H55.6605V88.26Z" fill="black"/>
</svg>
